<svg xmlns="http://www.w3.org/2000/svg" xmlns:xlink="http://www.w3.org/1999/xlink" width="150.284" height="150.284" viewBox="0 0 150.284 150.284">
  <defs>
    <linearGradient id="linear-gradient" x1="0.5" x2="0.5" y2="1" gradientUnits="objectBoundingBox">
      <stop offset="0" stop-color="#84d2ff"/>
      <stop offset="1" stop-color="#d36dff"/>
    </linearGradient>
  </defs>
  <path id="instagram" d="M47.4,3A44.455,44.455,0,0,0,3,47.4v61.48a44.455,44.455,0,0,0,44.4,44.4h61.48a44.455,44.455,0,0,0,44.4-44.4V47.4A44.455,44.455,0,0,0,108.882,3Zm0,6.831h61.48A37.521,37.521,0,0,1,146.453,47.4v61.48a37.521,37.521,0,0,1-37.571,37.571H47.4A37.521,37.521,0,0,1,9.831,108.882V47.4A37.521,37.521,0,0,1,47.4,9.831Zm71.726,20.493a6.831,6.831,0,1,0,6.831,6.831A6.831,6.831,0,0,0,119.128,30.324ZM78.142,40.571a37.571,37.571,0,1,0,37.571,37.571A37.623,37.623,0,0,0,78.142,40.571Zm0,6.831A30.74,30.74,0,1,1,47.4,78.142,30.688,30.688,0,0,1,78.142,47.4Z" transform="translate(-3 -3)" fill="url(#linear-gradient)"/>
</svg>
