<svg xmlns="http://www.w3.org/2000/svg" xmlns:xlink="http://www.w3.org/1999/xlink" width="150.284" height="150.284" viewBox="0 0 150.284 150.284">
  <defs>
    <linearGradient id="linear-gradient" x1="0.5" x2="0.5" y2="1" gradientUnits="objectBoundingBox">
      <stop offset="0" stop-color="#84d2ff"/>
      <stop offset="1" stop-color="#d36dff"/>
    </linearGradient>
  </defs>
  <g id="linkedin" transform="translate(-10.24 -10.24)">
    <g id="Group_1" data-name="Group 1" transform="translate(10.24 10.24)">
      <path id="Path_3" data-name="Path 3" d="M85.382,10.24a75.142,75.142,0,1,0,75.142,75.142A75.191,75.191,0,0,0,85.382,10.24Zm0,6.534A68.608,68.608,0,1,1,16.774,85.382,68.558,68.558,0,0,1,85.382,16.774ZM55.979,42.91a9.8,9.8,0,1,0,9.8,9.8A9.851,9.851,0,0,0,55.979,42.91Zm0,6.534a3.267,3.267,0,1,1-3.267,3.267A3.219,3.219,0,0,1,55.979,49.444ZM49.444,65.78a3.267,3.267,0,0,0-3.267,3.267v49.006a3.267,3.267,0,0,0,3.267,3.267H62.513a3.267,3.267,0,0,0,3.267-3.267V69.047a3.267,3.267,0,0,0-3.267-3.267Zm26.136,0a3.267,3.267,0,0,0-3.267,3.267v49.006a3.267,3.267,0,0,0,3.267,3.267H88.649a3.267,3.267,0,0,0,3.267-3.267v-24.5a8.168,8.168,0,0,1,16.335,0v24.5a3.267,3.267,0,0,0,3.267,3.267h13.068a3.267,3.267,0,0,0,3.267-3.267V90.282a24.552,24.552,0,0,0-24.5-24.5,23.834,23.834,0,0,0-11.435,3.235,3.267,3.267,0,0,0-3.267-3.235ZM52.711,72.314h6.534v42.471H52.711Zm26.136,0h6.534v2.667a3.267,3.267,0,0,0,5.532,2.355,17.952,17.952,0,0,1,30.405,12.947v24.5h-6.534V93.549a14.7,14.7,0,0,0-29.4,0v21.236H78.848Z" transform="translate(-10.24 -10.24)" fill="url(#linear-gradient)"/>
    </g>
  </g>
</svg>
