<svg xmlns="http://www.w3.org/2000/svg" xmlns:xlink="http://www.w3.org/1999/xlink" width="202.403" height="150.284" viewBox="0 0 202.403 150.284">
  <defs>
    <linearGradient id="linear-gradient" x1="0.5" x2="0.5" y2="1" gradientUnits="objectBoundingBox">
      <stop offset="0" stop-color="#84d2ff"/>
      <stop offset="1" stop-color="#d36dff"/>
    </linearGradient>
  </defs>
  <path id="youtube" d="M103.513,9c-31,0-60.117,2.348-75.619,5.632C17.566,16.98,8.632,24.025,6.761,34.83A305.376,305.376,0,0,0,3,84.142c0,21.134,1.871,37.571,4.219,49.312,1.89,10.328,10.805,17.85,21.134,20.2,16.455,3.284,44.615,5.632,75.619,5.632s59.163-2.348,75.6-5.632c10.347-2.348,19.262-9.393,21.134-20.2a354.708,354.708,0,0,0,4.7-49.771,254.681,254.681,0,0,0-4.7-49.789c-1.872-10.328-10.787-17.85-21.134-20.2C163.135,11.348,134.5,9,103.513,9Zm0,9.393c33.811,0,61.034,2.807,74.188,5.155,7.045,1.889,12.676,6.586,13.612,12.695a257.242,257.242,0,0,1,4.7,47.44,346.059,346.059,0,0,1-4.7,48.358c-1.394,8.916-10.787,11.741-13.612,12.695-16.914,3.284-45.092,5.614-73.27,5.614s-56.815-1.871-73.253-5.614c-7.045-1.889-12.677-6.586-13.612-12.695-3.761-13.154-5.173-30.526-5.173-47.9,0-21.611,1.89-37.571,3.761-47.422,1.413-8.934,11.264-11.759,13.612-12.695C45.267,20.741,73.923,18.393,103.513,18.393ZM78.142,46.571v75.142l65.749-37.571Zm9.393,15.978,37.571,21.592L87.535,105.734Z" transform="translate(-3 -9)" fill="url(#linear-gradient)"/>
</svg>
